<svg xmlns="http://www.w3.org/2000/svg" width="280" height="73" viewBox="0 0 280 73"><g><g><g><path fill="#1e2a37" d="M89.767 35.052c-1.41-.733-2.353-1.71-2.83-2.931-.478-1.232-.717-2.715-.717-4.447v-7.56c0-3.51.91-5.902 2.731-7.179 1.544-1.077 3.786-1.615 6.728-1.615 2.954 0 5.097.41 6.429 1.232 1.332.81 2.165 2.088 2.498 3.83.155.778.233 1.705.233 2.782l-3.18.283c0-1.62-.14-2.714-.417-3.28-.278-.578-.555-.989-.833-1.233-.266-.244-.71-.455-1.332-.633-.622-.189-1.593-.283-2.915-.283-1.32 0-2.359.089-3.114.266-.755.167-1.399.456-1.932.866-1.021.789-1.532 2.238-1.532 4.347v8.694c0 2.087.516 3.486 1.549 4.196 1.032.7 2.676 1.05 4.93 1.05 2.264 0 3.708-.267 4.33-.8.621-.533 1.004-1.31 1.149-2.331.077-.556.116-1.222.116-1.999h3.181c0 2.42-.35 4.12-1.049 5.096-1.288 1.821-3.736 2.732-7.344 2.732-3.031 0-5.258-.361-6.679-1.083zm20.835.716V33.27h4.596V14.168h-4.596v-2.482h12.523v2.482h-4.58V33.27h4.58v2.498zm24.031 0V14.434h-6.944v-2.748h17.253v2.748h-6.961v21.334zm21.034 0v-9.46l-8.526-14.622h3.547l6.661 11.692 6.695-11.692h3.448l-8.477 14.623v9.46zm22.65 0l-8.594-24.082h3.448l6.645 19.186 6.645-19.186h3.481l-8.677 24.082zm16.221 0V33.27h4.597V14.168h-4.597v-2.482h12.524v2.482h-4.58V33.27h4.58v2.498zm18.686 0V33.27l11.358-18.836H213.74v-2.748h14.523v2.515l-11.342 18.82h11.558v2.747zm30.693-2.331c2.199 0 3.798-.35 4.797-1.05.999-.71 1.499-2.11 1.499-4.196v-8.71c0-2.088-.506-3.52-1.516-4.297-.999-.777-2.587-1.166-4.763-1.166-3.375 0-5.424.933-6.145 2.798-.278.71-.417 1.599-.417 2.665v8.71c0 2.076.544 3.47 1.632 4.18 1.089.71 2.726 1.066 4.913 1.066zm-6.162 1.598c-1.454-.732-2.442-1.715-2.964-2.947-.522-1.233-.783-2.704-.783-4.414v-7.577c0-3.453.977-5.846 2.931-7.178 1.577-1.066 3.909-1.599 6.995-1.599 5.463 0 8.588 2.032 9.376 6.095.167.855.25 1.821.25 2.898v7.128c0 3.353-.96 5.707-2.881 7.062-1.543 1.088-3.719 1.632-6.528 1.632-2.809 0-4.941-.367-6.396-1.1zm22.533.733V11.686h10.742c3.32 0 5.402 1.255 6.246 3.764.31.933.466 2.043.466 3.331.011 1.277-.133 2.354-.433 3.23-.3.867-.689 1.539-1.166 2.016-.466.466-1.06.85-1.782 1.15l5.113 10.591h-3.448l-4.779-9.992-7.595.016v9.976zm3.364-12.524h7.095c1.421 0 2.382-.383 2.881-1.149.511-.766.766-1.848.766-3.247-.011-2.51-.671-3.986-1.981-4.43a3.588 3.588 0 0 0-1.283-.184h-7.478z"/></g><g><path fill="#1e2a37" d="M87.712 59.07H86.4V47.785h6.29v1.165h-4.978v4.13h4.677v1.165h-4.677zm8.1 0H94.53v-8.46h1.282zm-1.39-10.752c0-.293.072-.506.217-.64a.747.747 0 0 1 .54-.209c.206 0 .383.07.532.209.15.139.224.352.224.64 0 .288-.074.505-.224.649a.755.755 0 0 1-.532.208.747.747 0 0 1-.54-.208c-.145-.144-.217-.36-.217-.649zm10.053 10.751v-5.472c0-.69-.157-1.204-.471-1.543-.314-.34-.805-.51-1.474-.51-.885 0-1.534.24-1.945.718-.412.479-.618 1.268-.618 2.37v4.437h-1.28V50.61h1.041l.209 1.158h.061a2.59 2.59 0 0 1 1.104-.965c.473-.231 1-.347 1.582-.347 1.019 0 1.785.247 2.3.741.514.489.772 1.273.772 2.354v5.518zm9.28 0l-.255-1.204h-.061c-.422.53-.844.89-1.266 1.08-.417.186-.94.279-1.567.279-.838 0-1.497-.217-1.975-.649-.474-.432-.71-1.047-.71-1.844 0-1.709 1.365-2.604 4.098-2.686l1.435-.046v-.525c0-.664-.144-1.153-.432-1.467-.283-.319-.738-.478-1.366-.478-.705 0-1.502.216-2.393.648l-.393-.98a6.035 6.035 0 0 1 1.366-.532c.499-.13.998-.193 1.497-.193 1.009 0 1.755.223 2.238.671.489.448.733 1.165.733 2.153v5.773zm-2.894-.903c.797 0 1.423-.218 1.875-.656.458-.437.687-1.05.687-1.837v-.764l-1.28.054c-1.02.036-1.755.196-2.208.479-.448.278-.672.712-.672 1.304 0 .463.14.816.417 1.057.283.242.677.363 1.18.363zm12.437.903v-5.472c0-.69-.157-1.204-.47-1.543-.315-.34-.806-.51-1.475-.51-.885 0-1.533.24-1.945.718-.411.479-.617 1.268-.617 2.37v4.437h-1.281V50.61h1.042l.208 1.158h.062a2.59 2.59 0 0 1 1.103-.965c.474-.231 1.001-.347 1.582-.347 1.02 0 1.786.247 2.3.741.515.489.772 1.273.772 2.354v5.518zm7.459.154c-1.225 0-2.174-.375-2.848-1.126-.669-.757-1.003-1.824-1.003-3.203 0-1.415.34-2.508 1.018-3.28.685-.772 1.657-1.158 2.918-1.158.406 0 .813.044 1.22.131.406.088.725.19.956.309l-.393 1.088a5.752 5.752 0 0 0-.926-.278 4.004 4.004 0 0 0-.888-.115c-1.718 0-2.578 1.096-2.578 3.287 0 1.04.209 1.837.625 2.393.422.556 1.045.833 1.868.833.705 0 1.428-.151 2.169-.455v1.135c-.566.293-1.279.44-2.138.44zm7.883 0c-1.25 0-2.238-.38-2.963-1.142-.72-.761-1.08-1.819-1.08-3.172 0-1.363.334-2.446 1.003-3.249.674-.803 1.577-1.204 2.709-1.204 1.06 0 1.898.35 2.516 1.05.617.694.926 1.613.926 2.755v.81h-5.827c.025.993.275 1.747.748 2.262.479.514 1.15.771 2.015.771.91 0 1.81-.19 2.701-.57v1.141a6.55 6.55 0 0 1-1.289.417 6.956 6.956 0 0 1-1.458.131zm-.347-7.694c-.679 0-1.222.221-1.628.664-.402.442-.638 1.054-.71 1.836h4.422c0-.807-.18-1.425-.54-1.852-.36-.432-.875-.648-1.544-.648zm17.373 3.303c0 1.379-.348 2.457-1.042 3.234-.695.772-1.655 1.157-2.88 1.157-.755 0-1.427-.177-2.013-.532-.587-.355-1.04-.864-1.359-1.528-.319-.664-.478-1.44-.478-2.33 0-1.38.344-2.453 1.034-3.22.69-.771 1.646-1.157 2.87-1.157 1.184 0 2.123.394 2.818 1.18.7.788 1.05 1.853 1.05 3.196zm-6.445 0c0 1.08.216 1.904.649 2.47.432.566 1.067.849 1.906.849.838 0 1.474-.28 1.906-.842.437-.565.656-1.391.656-2.477 0-1.075-.219-1.89-.656-2.446-.432-.561-1.073-.842-1.922-.842-.838 0-1.471.276-1.898.826-.427.55-.64 1.371-.64 2.462zm12.792-4.36c1.112 0 1.973.38 2.586 1.142.617.756.926 1.829.926 3.218 0 1.39-.312 2.47-.934 3.241-.618.767-1.477 1.15-2.578 1.15-.55 0-1.055-.1-1.512-.3a2.875 2.875 0 0 1-1.143-.942h-.092l-.27 1.088h-.919V47.06h1.281v2.918c0 .653-.02 1.24-.061 1.76h.061c.597-.845 1.482-1.266 2.655-1.266zm-.185 1.072c-.875 0-1.505.252-1.89.757-.387.499-.58 1.343-.58 2.531 0 1.189.198 2.04.594 2.555.397.509 1.032.764 1.907.764.787 0 1.374-.286 1.76-.857.385-.576.578-1.402.578-2.477 0-1.101-.193-1.922-.579-2.462-.385-.54-.982-.81-1.79-.81zm9.481 7.68c-1.224 0-2.174-.376-2.848-1.127-.669-.757-1.003-1.824-1.003-3.203 0-1.415.34-2.508 1.019-3.28.684-.772 1.656-1.158 2.917-1.158.406 0 .813.044 1.22.131.406.088.725.19.956.309l-.393 1.088a5.752 5.752 0 0 0-.926-.278 4.004 4.004 0 0 0-.888-.115c-1.718 0-2.578 1.096-2.578 3.287 0 1.04.209 1.837.626 2.393.421.556 1.044.833 1.867.833.705 0 1.428-.151 2.169-.455v1.135c-.566.293-1.279.44-2.138.44zm5.591-.155h-1.28V50.61h1.28zm-1.335-9.77c.247-.32.512-.705.795-1.158.288-.453.515-.847.68-1.181h1.558v.162c-.226.334-.563.746-1.01 1.235-.448.489-.837.867-1.166 1.134h-.857zm13.93 7.463c0 .787-.293 1.394-.879 1.82-.587.428-1.41.642-2.47.642-1.122 0-1.996-.178-2.624-.533v-1.189c.406.206.841.368 1.304.487a5.51 5.51 0 0 0 1.35.177c.67 0 1.184-.105 1.544-.316.361-.216.541-.543.541-.98 0-.33-.144-.61-.433-.842-.283-.236-.838-.514-1.667-.833-.787-.293-1.348-.548-1.682-.764-.33-.221-.576-.471-.741-.749-.16-.278-.24-.61-.24-.995 0-.69.281-1.233.842-1.629.56-.401 1.33-.602 2.308-.602.91 0 1.8.185 2.67.556l-.455 1.042c-.849-.35-1.619-.525-2.308-.525-.607 0-1.065.095-1.374.285-.309.19-.463.453-.463.788 0 .226.057.419.17.579.118.159.306.31.563.455.258.144.752.352 1.482.625 1.003.365 1.68.733 2.03 1.104.355.37.532.836.532 1.397zm6.109-6.306c.375 0 .712.031 1.011.093l-.178 1.188a4.353 4.353 0 0 0-.926-.115c-.684 0-1.271.277-1.759.833-.484.556-.726 1.248-.726 2.076v4.538h-1.281V50.61h1.057l.147 1.567h.062c.314-.55.692-.975 1.134-1.273a2.556 2.556 0 0 1 1.459-.448zm10.052 4.376c0 1.379-.347 2.457-1.042 3.234-.694.772-1.654 1.157-2.879 1.157-.756 0-1.427-.177-2.014-.532-.586-.355-1.039-.864-1.358-1.528-.319-.664-.479-1.44-.479-2.33 0-1.38.345-2.453 1.034-3.22.69-.771 1.647-1.157 2.871-1.157 1.184 0 2.123.394 2.817 1.18.7.788 1.05 1.853 1.05 3.196zm-6.444 0c0 1.08.216 1.904.648 2.47.432.566 1.068.849 1.906.849.839 0 1.474-.28 1.907-.842.437-.565.656-1.391.656-2.477 0-1.075-.219-1.89-.656-2.446-.433-.561-1.073-.842-1.922-.842-.839 0-1.472.276-1.899.826-.427.55-.64 1.371-.64 2.462zm14.266 4.237h-6.136v-.872l4.615-6.59h-4.329v-.997h5.734v.996l-4.553 6.467h4.669zm3.345-8.459v5.488c0 .69.157 1.204.471 1.543.314.34.805.51 1.474.51.885 0 1.531-.242 1.937-.726.412-.483.618-1.273.618-2.37V50.61h1.281v8.46h-1.057l-.186-1.135h-.069a2.548 2.548 0 0 1-1.096.957c-.463.22-.993.331-1.59.331-1.029 0-1.801-.244-2.315-.733-.51-.489-.764-1.27-.764-2.346V50.61zm19.445 8.46v-5.504c0-.674-.144-1.178-.432-1.512-.288-.34-.736-.51-1.343-.51-.798 0-1.387.23-1.767.687-.381.458-.572 1.163-.572 2.115v4.723h-1.281v-5.503c0-.674-.144-1.178-.432-1.512-.288-.34-.738-.51-1.35-.51-.803 0-1.392.242-1.768.726-.37.478-.556 1.266-.556 2.361v4.438h-1.281V50.61h1.042l.209 1.158h.061a2.528 2.528 0 0 1 1.019-.965 3.15 3.15 0 0 1 1.482-.347c1.322 0 2.187.479 2.593 1.436h.062a2.694 2.694 0 0 1 1.096-1.05c.478-.257 1.024-.386 1.636-.386.957 0 1.672.247 2.145.741.479.489.718 1.273.718 2.354v5.518zm5.368 0h-1.282v-8.46h1.282zm-1.39-10.752c0-.293.072-.506.216-.64a.75.75 0 0 1 .541-.209c.206 0 .383.07.532.209.149.139.224.352.224.64 0 .288-.075.505-.224.649a.753.753 0 0 1-.532.208.75.75 0 0 1-.541-.208c-.144-.144-.216-.36-.216-.649zm6.996 9.848c.227 0 .445-.015.656-.046.211-.036.379-.072.502-.108v.98c-.139.067-.345.12-.617.162-.268.046-.51.07-.726.07-1.636 0-2.454-.862-2.454-2.586v-5.032h-1.212v-.617l1.212-.533.54-1.806h.741v1.96h2.454v.996h-2.454v4.978c0 .51.121.9.363 1.173s.573.41.995.41zm6.587 1.058c-1.25 0-2.238-.381-2.963-1.143-.721-.761-1.081-1.819-1.081-3.172 0-1.363.335-2.446 1.004-3.249.674-.803 1.576-1.204 2.708-1.204 1.06 0 1.899.35 2.516 1.05.618.694.927 1.613.927 2.755v.81h-5.827c.025.993.275 1.747.748 2.262.479.514 1.15.771 2.015.771.91 0 1.811-.19 2.701-.57v1.141a6.565 6.565 0 0 1-1.289.417 6.959 6.959 0 0 1-1.459.131zm-.347-7.695c-.679 0-1.222.221-1.628.664-.402.442-.638 1.054-.71 1.836h4.422c0-.807-.18-1.425-.54-1.852-.361-.432-.875-.648-1.544-.648zm7.089 7.54h-1.282V47.06h1.282zm8.663 0v-5.472c0-.69-.157-1.204-.471-1.543-.314-.34-.805-.51-1.474-.51-.885 0-1.534.24-1.945.718-.412.479-.618 1.268-.618 2.37v4.437h-1.281V50.61h1.042l.209 1.158h.061a2.597 2.597 0 0 1 1.104-.965 3.552 3.552 0 0 1 1.582-.347c1.019 0 1.785.247 2.3.741.514.489.772 1.273.772 2.354v5.518zm7.652.154c-1.251 0-2.239-.38-2.964-1.142-.72-.761-1.081-1.819-1.081-3.172 0-1.363.335-2.446 1.004-3.249.674-.803 1.577-1.204 2.709-1.204 1.06 0 1.898.35 2.516 1.05.617.694.926 1.613.926 2.755v.81h-5.827c.026.993.275 1.747.749 2.262.478.514 1.149.771 2.014.771.911 0 1.811-.19 2.701-.57v1.141a6.544 6.544 0 0 1-1.289.417 6.949 6.949 0 0 1-1.458.131zm-.348-7.694c-.679 0-1.222.221-1.628.664-.401.442-.638 1.054-.71 1.836h4.422c0-.807-.18-1.425-.54-1.852-.36-.432-.875-.648-1.544-.648zm-2.554-4.569h.887a8.75 8.75 0 0 1 1.69 1.459c.669-.67 1.238-1.155 1.706-1.459h.918v.193l-.509.525c-.741.761-1.23 1.366-1.466 1.813h-1.281a6.176 6.176 0 0 0-.572-.802c-.262-.324-.72-.836-1.373-1.536z"/></g><g><g><path fill="#6fcf97" d="M26.675 55.1a1.74 1.74 0 0 1 1.656 0l12.882 6.963a1.74 1.74 0 0 1 0 3.063l-12.882 6.963a1.74 1.74 0 0 1-1.656 0l-12.882-6.963a1.74 1.74 0 0 1 0-3.063zm-8.393 8.494l9.221 4.985 9.221-4.985-9.221-4.984z"/></g><g><path fill="#6fcf97" d="M13.795 7.17a1.74 1.74 0 0 1 1.656 0l12.882 6.963c.563.304.913.892.913 1.531v40.968c0 .64-.35 1.227-.913 1.531l-12.882 6.964a1.74 1.74 0 0 1-1.656 0L.913 58.163A1.74 1.74 0 0 1 0 56.632V15.664c0-.64.35-1.227.913-1.531zm.828 3.51L3.482 16.702v38.892l11.141 6.022 11.141-6.022V16.702z"/></g><g><path fill="#6fcf97" d="M29.247 15.667v40.968c0 .64-.35 1.227-.913 1.531L15.452 65.13a1.741 1.741 0 0 1-2.568-1.532V22.631c0-.64.35-1.228.913-1.532l12.882-6.963a1.74 1.74 0 0 1 2.568 1.531zm-12.882 8.001v37.01l9.4-5.081v-37.01z"/></g><g><path fill="#6fcf97" d="M39.555.21a1.74 1.74 0 0 1 1.656 0l12.882 6.963c.562.304.913.892.913 1.531v47.931c0 .64-.35 1.227-.913 1.532L41.211 65.13a1.74 1.74 0 0 1-1.656 0l-12.882-6.963a1.74 1.74 0 0 1-.913-1.532V8.705c0-.64.35-1.228.913-1.532zm.828 3.51L29.242 9.742v45.855l11.141 6.023 11.141-6.023V9.742z"/></g><g><path fill="#6fcf97" d="M55.01 8.705v47.93c0 .64-.35 1.228-.913 1.532l-12.882 6.964a1.741 1.741 0 0 1-2.569-1.532V15.67c0-.64.35-1.228.913-1.532l12.882-6.963a1.74 1.74 0 0 1 2.569 1.531zm-12.882 8.001V60.68l9.4-5.081V11.625z"/></g></g></g></g></svg>