<?xml version="1.0" standalone="no"?>
<!DOCTYPE svg PUBLIC "-//W3C//DTD SVG 20010904//EN"
 "http://www.w3.org/TR/2001/REC-SVG-20010904/DTD/svg10.dtd">
<svg version="1.0" xmlns="http://www.w3.org/2000/svg"
 width="512.000000pt" height="512.000000pt" viewBox="0 0 512.000000 512.000000"
 preserveAspectRatio="xMidYMid meet">
<metadata>
Created by potrace 1.11, written by Peter Selinger 2001-2013
</metadata>
<g transform="translate(0.000000,512.000000) scale(0.100000,-0.100000)"
fill="#000000" stroke="none">
<path d="M1140 5104 c-365 -34 -567 -116 -772 -312 -185 -178 -281 -373 -323
-656 -26 -176 -34 -502 -41 -1711 -7 -1219 -4 -1327 37 -1528 65 -323 224
-547 511 -721 140 -85 314 -133 563 -156 177 -17 2782 -26 2930 -11 310 32
534 131 720 316 204 205 293 428 325 815 16 195 34 2570 21 2770 -17 254 -51
418 -116 553 -130 273 -371 479 -657 561 -123 35 -268 55 -490 66 -193 9
-2623 22 -2708 14z m1745 -925 c384 -33 726 -169 940 -374 l64 -60 6 -422 7
-423 -350 0 -349 0 -67 248 c-76 276 -70 267 -181 320 -221 108 -526 65 -684
-97 -94 -96 -164 -255 -208 -476 -26 -133 -26 -588 1 -730 37 -197 97 -341
178 -431 65 -70 106 -97 205 -131 67 -23 95 -26 198 -26 99 -1 131 3 185 22
116 40 213 119 260 211 22 43 46 128 55 193 l6 47 387 -2 387 -3 -2 -96 c-4
-249 -107 -474 -306 -666 -177 -171 -362 -272 -607 -330 -87 -20 -140 -26
-302 -30 -217 -6 -327 4 -488 43 -286 69 -529 225 -703 452 l-49 63 99 105
c133 142 158 182 158 253 -1 78 -31 127 -118 191 -79 60 -250 169 -348 224
l-67 37 -7 119 c-13 220 11 494 61 693 31 123 59 197 118 316 284 564 801 823
1521 760z"/>
</g>
</svg>
