<?xml version="1.0" standalone="no"?>
<!DOCTYPE svg PUBLIC "-//W3C//DTD SVG 20010904//EN"
 "http://www.w3.org/TR/2001/REC-SVG-20010904/DTD/svg10.dtd">
<svg version="1.0" xmlns="http://www.w3.org/2000/svg"
 width="611.000000pt" height="611.000000pt" viewBox="0 0 611.000000 611.000000"
 preserveAspectRatio="xMidYMid meet">
<metadata>
Created by potrace 1.11, written by Peter Selinger 2001-2013
</metadata>
<g transform="translate(0.000000,611.000000) scale(0.100000,-0.100000)"
fill="#000000" stroke="none">
<path d="M1807 6104 c-1 -1 -108 -4 -237 -7 -129 -4 -246 -8 -260 -11 -14 -3
-51 -8 -84 -11 -84 -8 -241 -41 -315 -65 -391 -129 -708 -466 -810 -863 -17
-65 -33 -135 -36 -155 -3 -20 -7 -48 -9 -62 -28 -159 -34 -339 -42 -1315 -9
-1117 -10 -2156 -1 -2260 9 -115 31 -262 52 -345 9 -36 17 -72 19 -80 23 -93
113 -271 187 -369 137 -182 358 -353 556 -430 131 -51 335 -89 573 -106 227
-17 3265 -27 3413 -12 69 7 156 21 267 43 349 67 701 354 861 699 35 77 81
225 94 305 3 19 10 60 15 90 18 103 30 253 35 462 6 250 17 1671 19 2383 1
538 -4 769 -18 855 -3 14 -7 47 -11 74 -28 221 -130 485 -234 605 -12 13 -21
27 -21 31 0 14 -174 185 -235 231 -245 186 -484 256 -965 284 -98 6 -461 10
-1890 20 -459 4 -855 7 -878 8 -24 1 -44 1 -45 1z"/>
</g>
</svg>
