<?xml version="1.0" encoding="utf-8"?>
<!-- Generator: Adobe Illustrator 24.0.1, SVG Export Plug-In . SVG Version: 6.00 Build 0)  -->
<svg version="1.1" id="Layer_1" xmlns="http://www.w3.org/2000/svg" xmlns:xlink="http://www.w3.org/1999/xlink" x="0px" y="0px"
	 viewBox="0 0 22 36" style="enable-background:new 0 0 22 36;" xml:space="preserve">
<style type="text/css">
	.st0{fill:#6FCF97;}
</style>
<g>
	<g>
		<path class="st0" d="M20.6,0.7c1,1,1,2.6,0,3.7L6.9,18l13.7,13.7c1,1,1,2.6,0,3.7c-1,1-2.6,1-3.7,0L1.4,19.8c0,0,0,0,0,0
			c-1-1-1-2.6,0-3.7L16.9,0.7c0,0,0,0,0,0C17.9-0.3,19.6-0.3,20.6,0.7C20.6,0.7,20.6,0.7,20.6,0.7z"/>
	</g>
</g>
</svg>
