<svg xmlns="http://www.w3.org/2000/svg" viewBox="0 0 22.38 26.79"><defs><style>.cls-1{fill:#6fcf97;}.cls-2{fill:none;stroke:#1e2a37;stroke-linecap:round;stroke-linejoin:round;}</style></defs><g id="Vrstva_2" data-name="Vrstva 2"><g id="Vrstva_1-2" data-name="Vrstva 1"><rect class="cls-1" x="2.5" width="11.94" height="26.79" rx="5.97"/><rect class="cls-1" x="14.44" y="8.56" width="7.95" height="17.79" rx="3.97"/><polyline class="cls-2" points="0.5 23.34 0.5 3.45 12.44 3.45 12.44 23.34"/><polyline class="cls-2" points="13.94 11.57 20.39 11.57 20.39 23.34"/><polyline class="cls-2" points="3.36 7.79 3.36 6.06 5.08 6.06"/><polyline class="cls-2" points="15.65 16.68 15.65 14.95 17.37 14.95"/><polyline class="cls-2" points="3.36 12.24 3.36 10.52 5.08 10.52"/><polyline class="cls-2" points="15.65 21.13 15.65 19.4 17.37 19.4"/><polyline class="cls-2" points="7.85 7.79 7.85 6.06 9.58 6.06"/><polyline class="cls-2" points="7.85 12.24 7.85 10.52 9.58 10.52"/><polyline class="cls-2" points="3.36 16.7 3.36 14.97 5.08 14.97"/><polyline class="cls-2" points="7.85 16.68 7.85 14.95 9.58 14.95"/><polyline class="cls-2" points="3.36 21.15 3.36 19.42 5.08 19.42"/><polyline class="cls-2" points="7.85 21.13 7.85 19.4 9.58 19.4"/></g></g></svg>