<svg xmlns="http://www.w3.org/2000/svg" viewBox="0 0 57.5 45.14"><defs><style>.cls-1{fill:#6fcf97;}.cls-2{fill:none;stroke:#1e2a37;stroke-linecap:round;stroke-linejoin:round;}</style></defs><g id="Vrstva_2" data-name="Vrstva 2"><g id="Vrstva_1-2" data-name="Vrstva 1"><path class="cls-1" d="M43,30.92,22.57,22.59,12.07,42a22,22,0,0,0,4.9,2l.24.06,1.05.24.5.09.87.14c.26,0,.53.06.79.09l.65.06c.5,0,1,0,1.5,0s1.29,0,1.92-.09c.25,0,.5,0,.74-.09s.72-.09,1.08-.15l1-.19L28,44A22.3,22.3,0,0,0,43,30.92Z"/><path class="cls-1" d="M23.29.5,21.84,1.94,21.79.51l.82,0C22.84.48,23.06.48,23.29.5Z"/><path class="cls-1" d="M28.79,1.38,22.07,8.09l-.11-3L26.23.79A19.82,19.82,0,0,1,28.79,1.38Z"/><path class="cls-1" d="M33.27,3.27l-11,11-.11-3,9-9h0A20.48,20.48,0,0,1,33.27,3.27Z"/><path class="cls-1" d="M37,5.9,22.53,20.4l-.11-3L35.26,4.52A17.79,17.79,0,0,1,37,5.9Z"/><path class="cls-1" d="M40.11,9.19,25.55,23.76l-2.24-.92L38.67,7.49A17.74,17.74,0,0,1,40.11,9.19Z"/><path class="cls-1" d="M42.54,13.14,30.08,25.61l-2.23-.92L41.44,11.1A22.23,22.23,0,0,1,42.54,13.14Z"/><path class="cls-1" d="M44.17,17.9l-9.55,9.55-2.24-.91,11.1-11.1A20.34,20.34,0,0,1,44.17,17.9Z"/><path class="cls-1" d="M41.45,30.24l2.64-2.64c-.07.31-.15.62-.24.92s-.11.38-.17.57c-.13.43-.28.86-.45,1.28-.06.17-.13.34-.2.51Z"/><path class="cls-1" d="M44.68,22.56c0,.42,0,.84,0,1.25L39.15,29.3l-2.23-.91,7.68-7.68C44.65,21.32,44.68,21.94,44.68,22.56Z"/><path class="cls-2" d="M8.24,39.35c-.3-.25-.59-.52-.88-.79C7.65,38.83,7.94,39.1,8.24,39.35Z"/><path class="cls-2" d="M7.18,38.38A21.67,21.67,0,0,1,5.3,36.31,23.09,23.09,0,0,0,7.18,38.38Z"/><path class="cls-2" d="M9.49,40.34c-.38-.27-.74-.56-1.09-.85C8.75,39.78,9.12,40.07,9.49,40.34Z"/><path class="cls-2" d="M8.4,39.49l-.16-.14Z"/><path class="cls-2" d="M9.6,40.43l-.11-.09Z"/><path class="cls-2" d="M7.36,38.56l-.18-.18Z"/><path class="cls-2" d="M21.75.52h0l.82,0Z"/><path class="cls-2" d="M21.75.52h0Z"/><path class="cls-2" d="M16.82,1.28A22.05,22.05,0,0,0,1.9,14.87h0A22.28,22.28,0,0,1,16.82,1.28Z"/><path class="cls-2" d="M44.64,22.57A22.07,22.07,0,0,0,22.57.5,22.17,22.17,0,0,1,44.64,22.57Z"/><path class="cls-2" d="M28,44a22.06,22.06,0,0,0,15-13h0A22.3,22.3,0,0,1,28,44Z"/><path class="cls-2" d="M43,30.9,22.57,22.57,12.07,42a22,22,0,0,0,4.9,2l.24.06q.52.14,1.05.24l.5.09.87.14c.26,0,.53.06.79.09l.65.06c.5,0,1,0,1.5,0s1.29,0,1.92-.09c.25,0,.5,0,.74-.09l1.08-.15,1-.19L28,44A22.3,22.3,0,0,0,43,30.9Z"/><path class="cls-2" d="M22.57.5l-.82,0h0Z"/><path class="cls-2" d="M1.56,29.29a22.28,22.28,0,0,0,3.68,6.94l.06.08a21.67,21.67,0,0,0,1.88,2.07l.18.18c.29.27.58.54.88.79l.16.14c.35.29.71.58,1.09.85l.11.09c.35.25.7.49,1.06.72l.17.11c.4.25.81.49,1.23.71v0A22.35,22.35,0,0,1,1.56,29.29Z"/><path class="cls-2" d="M1.91,14.87l20.66,7.7-.82-22H21.6c-.52,0-1.05.06-1.56.12s-.84.12-1.25.2c-.14,0-.27,0-.4.06q-.8.15-1.56.36h0A22.28,22.28,0,0,0,1.91,14.87Z"/><path class="cls-2" d="M44.64,22.57A22.17,22.17,0,0,0,22.57.5l-.82,0,.82,22.05L43,30.9c.07-.17.14-.34.2-.52.16-.42.32-.84.45-1.27.06-.19.11-.39.17-.58.13-.45.24-.91.34-1.37,0-.18.07-.35.11-.53v0q.18-.91.27-1.86a.76.76,0,0,0,0-.15A19.57,19.57,0,0,0,44.64,22.57Z"/><path class="cls-2" d="M12.07,42l10.5-19.38L1.91,14.87c-.07.19-.14.37-.2.56s-.21.61-.3.92L1.23,17Q1,17.71.9,18.44c0,.15-.05.29-.08.43C.73,19.41.65,20,.6,20.5c0,.1,0,.19,0,.28,0,.6-.08,1.19-.08,1.79s0,.91.05,1.36c0,.13,0,.27,0,.41,0,.32.06.64.1.95,0,.15,0,.3,0,.44.06.37.12.74.19,1.1s.09.42.14.62.11.49.18.74.13.49.21.74.07.24.11.36A22.35,22.35,0,0,0,12.07,42Z"/><polyline class="cls-2" points="41.68 39.5 46.72 44.54 57 44.54"/><line class="cls-2" x1="57" y1="41.5" x2="51.09" y2="41.5"/><line class="cls-2" x1="57" y1="39.39" x2="51.09" y2="39.39"/><line class="cls-2" x1="57" y1="37.29" x2="51.09" y2="37.29"/><polyline class="cls-2" points="41.68 5.65 46.72 0.6 57 0.6"/><line class="cls-2" x1="57" y1="3.65" x2="51.09" y2="3.65"/><line class="cls-2" x1="57" y1="5.75" x2="51.09" y2="5.75"/><line class="cls-2" x1="57" y1="7.85" x2="51.09" y2="7.85"/></g></g></svg>