<svg xmlns="http://www.w3.org/2000/svg" viewBox="0 0 59.66 48.63"><defs><style>.cls-1{fill:none;}.cls-1,.cls-2{stroke:#1e2a37;stroke-linecap:round;stroke-linejoin:round;}.cls-2{fill:#fff;}.cls-3{fill:#6fcf97;}</style></defs><g id="Vrstva_2" data-name="Vrstva 2"><g id="Vrstva_1-2" data-name="Vrstva 1"><rect class="cls-1" x="28.69" y="0.5" width="30.47" height="42.03"/><line class="cls-1" x1="33.47" y1="6.1" x2="43.1" y2="6.1"/><line class="cls-1" x1="44.82" y1="6.1" x2="49.64" y2="6.1"/><line class="cls-1" x1="51.35" y1="6.1" x2="54.38" y2="6.1"/><line class="cls-1" x1="33.47" y1="19.8" x2="43.1" y2="19.8"/><line class="cls-1" x1="44.82" y1="19.8" x2="49.64" y2="19.8"/><line class="cls-1" x1="51.35" y1="19.8" x2="54.38" y2="19.8"/><line class="cls-1" x1="54.38" y1="16.38" x2="44.74" y2="16.38"/><line class="cls-1" x1="43.03" y1="16.38" x2="38.21" y2="16.38"/><line class="cls-1" x1="36.5" y1="16.38" x2="33.47" y2="16.38"/><line class="cls-1" x1="54.38" y1="9.52" x2="46.53" y2="9.52"/><line class="cls-1" x1="44.82" y1="9.52" x2="38.21" y2="9.52"/><line class="cls-1" x1="36.5" y1="9.52" x2="33.47" y2="9.52"/><line class="cls-1" x1="33.47" y1="12.95" x2="41.31" y2="12.95"/><line class="cls-1" x1="43.03" y1="12.95" x2="49.64" y2="12.95"/><line class="cls-1" x1="51.35" y1="12.95" x2="54.38" y2="12.95"/><line class="cls-1" x1="54.38" y1="23.23" x2="46.53" y2="23.23"/><line class="cls-1" x1="44.82" y1="23.23" x2="38.21" y2="23.23"/><line class="cls-1" x1="36.5" y1="23.23" x2="33.47" y2="23.23"/><rect class="cls-2" x="0.5" y="6.1" width="30.47" height="42.03"/><circle class="cls-3" cx="15.72" cy="38.74" r="6.52"/><line class="cls-1" x1="5.28" y1="11.7" x2="14.92" y2="11.7"/><line class="cls-1" x1="16.63" y1="11.7" x2="21.45" y2="11.7"/><line class="cls-1" x1="23.16" y1="11.7" x2="26.19" y2="11.7"/><line class="cls-1" x1="5.28" y1="25.4" x2="14.92" y2="25.4"/><line class="cls-1" x1="16.63" y1="25.4" x2="21.45" y2="25.4"/><line class="cls-1" x1="23.16" y1="25.4" x2="26.19" y2="25.4"/><line class="cls-1" x1="26.19" y1="21.97" x2="16.55" y2="21.97"/><line class="cls-1" x1="14.84" y1="21.97" x2="10.02" y2="21.97"/><line class="cls-1" x1="8.31" y1="21.97" x2="5.28" y2="21.97"/><line class="cls-1" x1="26.19" y1="15.12" x2="18.34" y2="15.12"/><line class="cls-1" x1="16.63" y1="15.12" x2="10.02" y2="15.12"/><line class="cls-1" x1="8.31" y1="15.12" x2="5.28" y2="15.12"/><line class="cls-1" x1="5.28" y1="18.55" x2="13.13" y2="18.55"/><line class="cls-1" x1="14.84" y1="18.55" x2="21.45" y2="18.55"/><line class="cls-1" x1="23.16" y1="18.55" x2="26.19" y2="18.55"/><line class="cls-1" x1="26.19" y1="28.83" x2="18.34" y2="28.83"/><line class="cls-1" x1="16.63" y1="28.83" x2="10.02" y2="28.83"/><line class="cls-1" x1="8.31" y1="28.83" x2="5.28" y2="28.83"/><path class="cls-1" d="M15.74,38.72l6.16,2.11a6.51,6.51,0,1,1-11-6.49Z"/><path class="cls-1" d="M15.73,38.72l-4.55,4.66a6.51,6.51,0,1,1,6,1.7l-.51.09Z"/><rect class="cls-3" x="36.56" y="28.6" width="14.73" height="9.11" rx="4.56"/><polyline class="cls-1" points="49.23 38.81 38.62 38.81 38.62 28.2"/><line class="cls-1" x1="41.31" y1="32.13" x2="41.31" y2="36.18"/><line class="cls-1" x1="44.46" y1="31.13" x2="44.46" y2="36.18"/><line class="cls-1" x1="47.6" y1="30.13" x2="47.6" y2="36.18"/></g></g></svg>