<svg xmlns="http://www.w3.org/2000/svg" viewBox="0 0 51.97 39.57"><defs><style>.cls-1{fill:none;}.cls-1,.cls-2{stroke:#1e2a37;stroke-linecap:round;stroke-linejoin:round;}.cls-2{fill:#fff;}.cls-3{fill:#6fcf97;}</style></defs><g id="Vrstva_2" data-name="Vrstva 2"><g id="Vrstva_1-2" data-name="Vrstva 1"><rect class="cls-1" x="23.32" y="31.71" width="5.33" height="5.33"/><rect class="cls-2" x="9.91" y="-8.91" width="32.16" height="50.97" rx="2.64" transform="translate(42.56 -9.41) rotate(90)"/><rect class="cls-1" x="3.14" y="3.14" width="45.69" height="26.87"/><polyline class="cls-2" points="10.93 7.85 10.93 24.11 42.24 24.11"/><rect class="cls-3" x="13.32" y="14.42" width="4.97" height="7.39" rx="0.9"/><rect class="cls-3" x="20.57" y="11.7" width="4.97" height="10.12" rx="0.9"/><rect class="cls-3" x="27.82" y="14.42" width="4.97" height="7.39" rx="0.9"/><rect class="cls-3" x="35.07" y="9.06" width="4.97" height="12.75" rx="0.9"/><rect class="cls-1" x="13.32" y="14.42" width="4.97" height="7.39" rx="0.9"/><rect class="cls-1" x="20.57" y="11.7" width="4.97" height="10.12" rx="0.9"/><rect class="cls-1" x="27.82" y="14.42" width="4.97" height="7.39" rx="0.9"/><rect class="cls-1" x="35.07" y="9.06" width="4.97" height="12.75" rx="0.9"/><line class="cls-1" x1="9.73" y1="7.85" x2="12.13" y2="7.85"/><line class="cls-1" x1="42.24" y1="22.91" x2="42.24" y2="25.31"/><path class="cls-2" d="M20.54,35.85H31.43a3.21,3.21,0,0,1,3.21,3.21v0a0,0,0,0,1,0,0H17.33a0,0,0,0,1,0,0v0A3.21,3.21,0,0,1,20.54,35.85Z"/></g></g></svg>